<svg width="40" height="40" viewBox="0 0 40 40" fill="none" xmlns="http://www.w3.org/2000/svg">
<g clip-path="url(#clip0_4_6696)">
<path d="M12.9167 2.5C11.3201 2.5 10 3.82109 10 5.41667V12.0833C10 13.6789 11.3201 15 12.9167 15H16.2891L18.2341 18.1087C19.0236 19.3695 20.9775 19.3695 21.766 18.1071L23.7109 15H27.0833C28.6799 15 30 13.6789 30 12.0833V5.41667C30 3.82109 28.6799 2.5 27.0833 2.5H12.9167ZM12.9167 5H27.0833C27.3285 5 27.5 5.17224 27.5 5.41667V12.0833C27.5 12.3278 27.3285 12.5 27.0833 12.5H23.0176C22.8057 12.5001 22.5972 12.5541 22.4119 12.6568C22.2265 12.7596 22.0703 12.9078 21.958 13.0876L20 16.2174L18.0404 13.0876C17.928 12.9078 17.7719 12.7596 17.5865 12.6568C17.4012 12.5541 17.1927 12.5001 16.9808 12.5H12.9167C12.6716 12.5 12.5 12.3278 12.5 12.0833V5.41667C12.5 5.17224 12.6716 5 12.9167 5ZM10.8333 16.6667C9.27084 16.6667 7.94069 17.2976 7.0866 18.2585C6.23251 19.2193 5.83334 20.4514 5.83334 21.6667C5.83334 22.8819 6.23251 24.114 7.0866 25.0749C7.94069 26.0357 9.27084 26.6667 10.8333 26.6667C12.3958 26.6667 13.726 26.0357 14.5801 25.0749C15.4342 24.114 15.8333 22.8819 15.8333 21.6667C15.8333 20.4514 15.4342 19.2193 14.5801 18.2585C13.726 17.2976 12.3958 16.6667 10.8333 16.6667ZM29.1667 16.6667C27.6042 16.6667 26.274 17.2976 25.4199 18.2585C24.5658 19.2193 24.1667 20.4514 24.1667 21.6667C24.1667 22.8819 24.5658 24.114 25.4199 25.0749C26.274 26.0357 27.6042 26.6667 29.1667 26.6667C30.7292 26.6667 32.0593 26.0357 32.9134 25.0749C33.7675 24.114 34.1667 22.8819 34.1667 21.6667C34.1667 20.4514 33.7675 19.2193 32.9134 18.2585C32.0593 17.2976 30.7292 16.6667 29.1667 16.6667ZM10.8333 19.1667C11.7708 19.1667 12.3157 19.4732 12.7116 19.9186C13.1075 20.364 13.3333 21.0069 13.3333 21.6667C13.3333 22.3264 13.1075 22.9693 12.7116 23.4147C12.3157 23.8601 11.7708 24.1667 10.8333 24.1667C9.89584 24.1667 9.351 23.8601 8.95509 23.4147C8.55918 22.9693 8.33334 22.3264 8.33334 21.6667C8.33334 21.0069 8.55918 20.364 8.95509 19.9186C9.351 19.4732 9.89584 19.1667 10.8333 19.1667ZM29.1667 19.1667C30.1042 19.1667 30.649 19.4732 31.0449 19.9186C31.4408 20.364 31.6667 21.0069 31.6667 21.6667C31.6667 22.3264 31.4408 22.9693 31.0449 23.4147C30.649 23.8601 30.1042 24.1667 29.1667 24.1667C28.2292 24.1667 27.6843 23.8601 27.2884 23.4147C26.8925 22.9693 26.6667 22.3264 26.6667 21.6667C26.6667 21.0069 26.8925 20.364 27.2884 19.9186C27.6843 19.4732 28.2292 19.1667 29.1667 19.1667ZM6.25001 28.3333C4.65421 28.3333 3.33334 29.6542 3.33334 31.25V33.3333C3.33334 34.9318 4.39994 36.2343 5.77149 37.0573C7.14305 37.8802 8.90481 38.3333 10.8333 38.3333C12.7619 38.3333 14.5236 37.8802 15.8952 37.0573C17.2667 36.2343 18.3333 34.9318 18.3333 33.3333V31.25C18.3333 29.6542 17.0125 28.3333 15.4167 28.3333H6.25001ZM24.5833 28.3333C22.9875 28.3333 21.6667 29.6542 21.6667 31.25V33.3333C21.6667 34.9318 22.7333 36.2343 24.1048 37.0573C25.4764 37.8802 27.2381 38.3333 29.1667 38.3333C31.0952 38.3333 32.857 37.8802 34.2285 37.0573C35.6001 36.2343 36.6667 34.9318 36.6667 33.3333V31.25C36.6667 29.6542 35.3458 28.3333 33.75 28.3333H24.5833ZM6.25001 30.8333H15.4167C15.6625 30.8333 15.8333 31.0041 15.8333 31.25V33.3333C15.8333 33.8057 15.4999 34.3794 14.6094 34.9137C13.7189 35.4481 12.3565 35.8333 10.8333 35.8333C9.31021 35.8333 7.94784 35.4481 7.0573 34.9137C6.16677 34.3794 5.83334 33.8057 5.83334 33.3333V31.25C5.83334 31.0041 6.00414 30.8333 6.25001 30.8333ZM24.5833 30.8333H33.75C33.9959 30.8333 34.1667 31.0041 34.1667 31.25V33.3333C34.1667 33.8057 33.8333 34.3794 32.9427 34.9137C32.0522 35.4481 30.6898 35.8333 29.1667 35.8333C27.6435 35.8333 26.2812 35.4481 25.3906 34.9137C24.5001 34.3794 24.1667 33.8057 24.1667 33.3333V31.25C24.1667 31.0041 24.3375 30.8333 24.5833 30.8333Z" fill="#424242"/>
</g>
<defs>
<clipPath id="clip0_4_6696">
<rect width="40" height="40" fill="white"/>
</clipPath>
</defs>
</svg>
