<svg width="40" height="40" viewBox="0 0 40 40" fill="none" xmlns="http://www.w3.org/2000/svg">
<path d="M26.25 2.5C24.0105 2.5 22.0853 3.87862 21.2647 5.83333C21.2597 5.83332 21.255 5.83333 21.25 5.83333C17.813 5.83333 15 8.64636 15 12.0833C15 15.5203 17.813 18.3333 21.25 18.3333C24.3026 18.3333 26.858 16.1123 27.3926 13.208C29.8258 12.6786 31.6667 10.5013 31.6667 7.91667C31.6667 4.94005 29.2266 2.5 26.25 2.5ZM26.25 5C27.8751 5 29.1667 6.29161 29.1667 7.91667C29.1667 9.16133 28.4059 10.2037 27.321 10.6266C26.8619 8.72629 25.5316 7.15834 23.7777 6.37533C24.2899 5.55206 25.1968 5 26.25 5ZM21.25 8.33333C23.3359 8.33333 25 9.99746 25 12.0833C25 14.1692 23.3359 15.8333 21.25 15.8333C19.1641 15.8333 17.5 14.1692 17.5 12.0833C17.5 9.99746 19.1641 8.33333 21.25 8.33333ZM34.6778 18.3496C33.7443 18.3577 32.8577 18.7277 32.0703 19.3132C31.2251 19.941 28.682 21.84 26.4811 23.4831C26.0039 21.9596 24.5883 20.8333 22.9167 20.8333H19.2562C16.9135 20.8333 15.8213 20.6435 14.8828 20.4443C13.9444 20.2451 13.039 20 11.5218 20C8.28452 20 5.84363 22.0775 4.24482 23.9925C2.646 25.9075 1.779 27.8206 1.779 27.8206C1.71087 27.97 1.67285 28.1314 1.6671 28.2955C1.66135 28.4596 1.68799 28.6233 1.74549 28.7771C1.80298 28.9309 1.89022 29.0719 2.00221 29.192C2.1142 29.3121 2.24875 29.4089 2.39818 29.477C2.5476 29.5451 2.70898 29.5831 2.87309 29.5888C3.0372 29.5945 3.20082 29.5678 3.35462 29.5103C3.50842 29.4527 3.64938 29.3655 3.76944 29.2535C3.88951 29.1414 3.98634 29.0069 4.05439 28.8574C4.05439 28.8574 4.80362 27.2248 6.16376 25.5957C7.5239 23.9666 9.38332 22.5 11.5218 22.5C12.7897 22.5 13.339 22.6715 14.3636 22.889C15.3883 23.1065 16.7697 23.3333 19.2562 23.3333H22.9167C23.6221 23.3333 24.1667 23.8779 24.1667 24.5833C24.1667 24.9746 23.9952 25.3119 23.7256 25.5387C23.7254 25.5389 23.6914 25.5648 23.6914 25.5648C23.6668 25.584 23.6429 25.604 23.6198 25.625C23.4211 25.7572 23.1804 25.8333 22.9167 25.8333H17.0834C16.9177 25.831 16.7533 25.8616 16.5996 25.9234C16.4458 25.9851 16.3059 26.0768 16.188 26.1931C16.07 26.3094 15.9763 26.448 15.9124 26.6008C15.8485 26.7537 15.8156 26.9177 15.8156 27.0833C15.8156 27.249 15.8485 27.413 15.9124 27.5658C15.9763 27.7186 16.07 27.8572 16.188 27.9735C16.3059 28.0898 16.4458 28.1815 16.5996 28.2433C16.7533 28.3051 16.9177 28.3357 17.0834 28.3333H22.9167C23.7018 28.3333 24.4321 28.0841 25.0375 27.6644C25.0896 27.636 25.1396 27.6039 25.1872 27.5684C25.1872 27.5684 32.3133 22.247 33.5612 21.32C33.5612 21.3194 33.5612 21.3189 33.5612 21.3184C34.0314 20.9688 34.4249 20.852 34.7005 20.8496C34.9762 20.8472 35.1819 20.9141 35.4671 21.1995C35.9591 21.6911 35.9562 22.4459 35.4769 22.9443C31.0143 26.6968 28.2071 29.1974 26.3526 30.6624C24.4749 32.1458 23.6875 32.5 22.9167 32.5C19.8733 32.5 16.5006 31.6667 12.9167 31.6667C10.8334 31.6667 9.36901 32.7863 8.58401 33.833C7.79901 34.8797 7.53746 35.9473 7.53746 35.9473C7.49334 36.1079 7.48178 36.2758 7.50347 36.441C7.52516 36.6062 7.57966 36.7654 7.66376 36.9093C7.74786 37.0531 7.85986 37.1787 7.99319 37.2786C8.12652 37.3786 8.27848 37.4508 8.44014 37.4912C8.6018 37.5316 8.7699 37.5392 8.93456 37.5136C9.09921 37.4881 9.2571 37.4299 9.39894 37.3425C9.54078 37.2551 9.66371 37.1401 9.76051 37.0045C9.8573 36.8689 9.92601 36.7153 9.96259 36.5527C9.96259 36.5527 10.1177 35.9537 10.5827 35.3337C11.0477 34.7137 11.6667 34.1667 12.9167 34.1667C16.0895 34.1667 19.4468 35 22.9167 35C24.5017 35 25.9041 34.2037 27.902 32.6253C29.8748 31.0669 32.6462 28.5916 37.0817 24.8617C37.136 24.8235 37.1872 24.781 37.2347 24.7347C37.2405 24.7289 37.2421 24.721 37.2477 24.7152L37.251 24.7184L37.2949 24.6729C37.4169 24.5458 37.5107 24.3944 37.57 24.2285C38.6088 22.7682 38.5408 20.7369 37.2347 19.432C36.5441 18.7408 35.6113 18.3416 34.6778 18.3496Z" fill="#424242"/>
</svg>
