<svg width="40" height="40" viewBox="0 0 40 40" fill="none" xmlns="http://www.w3.org/2000/svg">
<path d="M20.0096 1.66663C18.4471 1.66663 17.1169 2.29757 16.2628 3.25842C15.4087 4.21927 15.0096 5.45135 15.0096 6.66663C15.0096 7.8819 15.4087 9.11398 16.2628 10.0748C16.8673 10.7549 17.7646 11.1684 18.7596 11.4111V13.5074C17.7411 13.6449 16.7351 13.8913 15.7924 14.3684L2.85299 20.9179C2.28368 21.2061 1.99476 21.7221 1.84387 22.2753C1.73131 22.4701 1.67339 22.6917 1.67623 22.9166V29.4596C1.66754 29.5298 1.66481 29.6005 1.66809 29.6712C1.69265 30.3948 2.10575 31.1619 2.84973 31.5397L15.7957 38.1087C18.4484 39.4532 21.5696 39.4589 24.2267 38.1217L37.1661 31.6113C37.9666 31.2082 38.3827 30.3632 38.3543 29.5833C38.3532 29.5354 38.3494 29.4875 38.3429 29.4401V22.9166C38.3461 22.6743 38.2788 22.4362 38.1492 22.2314C37.9827 21.7258 37.703 21.2587 37.1759 20.9895L24.2283 14.3831C23.2861 13.9021 22.2787 13.653 21.2596 13.5123V11.4111C22.2546 11.1684 23.1518 10.7549 23.7563 10.0748C24.6104 9.11398 25.0096 7.8819 25.0096 6.66663C25.0096 5.45135 24.6104 4.21927 23.7563 3.25842C22.9022 2.29757 21.5721 1.66663 20.0096 1.66663ZM20.0096 4.16663C20.9471 4.16663 21.4919 4.47318 21.8878 4.91858C22.2837 5.36398 22.5096 6.0069 22.5096 6.66663C22.5096 7.32635 22.2837 7.96927 21.8878 8.41467C21.5055 8.84483 20.9674 9.13188 20.0877 9.15198C20.0357 9.14872 19.9835 9.14872 19.9314 9.15198C19.0517 9.13188 18.5137 8.84483 18.1313 8.41467C17.7354 7.96927 17.5096 7.32635 17.5096 6.66663C17.5096 6.0069 17.7354 5.36398 18.1313 4.91858C18.5272 4.47318 19.0721 4.16663 20.0096 4.16663ZM18.7596 16.1588V22.0833C18.7572 22.2489 18.7878 22.4134 18.8496 22.5671C18.9114 22.7208 19.0031 22.8607 19.1194 22.9787C19.2357 23.0966 19.3743 23.1903 19.5271 23.2542C19.6799 23.3182 19.8439 23.3511 20.0096 23.3511C20.1752 23.3511 20.3392 23.3182 20.492 23.2542C20.6449 23.1903 20.7835 23.0966 20.8998 22.9787C21.0161 22.8607 21.1078 22.7208 21.1695 22.5671C21.2313 22.4134 21.2619 22.2489 21.2596 22.0833V16.1637C21.8783 16.2845 22.5121 16.3135 23.0922 16.6097L35.4913 22.9378L23.102 29.2089C21.1455 30.1988 18.8823 30.1954 16.9301 29.1992L4.53105 22.8694L16.9204 16.5983C17.5028 16.3035 18.139 16.2774 18.7596 16.1588ZM12.0929 21.6666C11.5404 21.6666 11.0105 21.7983 10.6198 22.0327C10.2291 22.2672 10.0096 22.5851 10.0096 22.9166C10.0096 23.2481 10.2291 23.5661 10.6198 23.8005C11.0105 24.0349 11.5404 24.1666 12.0929 24.1666C12.6454 24.1666 13.1753 24.0349 13.566 23.8005C13.9567 23.5661 14.1762 23.2481 14.1762 22.9166C14.1762 22.5851 13.9567 22.2672 13.566 22.0327C13.1753 21.7983 12.6454 21.6666 12.0929 21.6666V21.6666ZM4.17623 25.4964L15.7941 31.4257C18.4469 32.7795 21.5714 32.7855 24.2299 31.4404C24.2305 31.4404 24.231 31.4404 24.2316 31.4404L35.8429 25.5631V29.4775L23.1036 35.8886C21.1474 36.8731 18.8809 36.8693 16.9269 35.8789L4.17623 29.4091V25.4964Z" fill="#424242"/>
</svg>
