<svg width="40" height="40" viewBox="0 0 40 40" fill="none" xmlns="http://www.w3.org/2000/svg">
<g clip-path="url(#clip0_4_6694)">
<path d="M10.4167 5C7.43333 5 5 7.43333 5 10.4167V29.5833C5 32.5667 7.43333 35 10.4167 35H20.0423C19.5423 34.225 19.1424 33.3917 18.859 32.5H10.4167C8.80833 32.5 7.5 31.1917 7.5 29.5833V10.4167C7.5 8.80833 8.80833 7.5 10.4167 7.5H29.5833C31.1917 7.5 32.5 8.80833 32.5 10.4167V18.859C33.3917 19.1424 34.225 19.5423 35 20.0423V10.4167C35 7.43333 32.5667 5 29.5833 5H10.4167ZM12.9167 10.8333C12.5852 10.8334 12.2672 10.9651 12.0328 11.1995C11.7984 11.4339 11.6667 11.7518 11.6667 12.0833V21.0449C11.6446 21.1791 11.6446 21.316 11.6667 21.4502V27.0833C11.6643 27.249 11.6949 27.4134 11.7567 27.5671C11.8185 27.7208 11.9102 27.8607 12.0265 27.9787C12.1428 28.0967 12.2814 28.1903 12.4342 28.2543C12.587 28.3182 12.751 28.3511 12.9167 28.3511C13.0823 28.3511 13.2463 28.3182 13.3991 28.2543C13.552 28.1903 13.6906 28.0967 13.8069 27.9787C13.9232 27.8607 14.0149 27.7208 14.0766 27.5671C14.1384 27.4134 14.169 27.249 14.1667 27.0833V22.5H17.5C20.707 22.5 23.3333 19.8737 23.3333 16.6667C23.3333 13.4597 20.707 10.8333 17.5 10.8333H12.9167ZM14.1667 13.3333H17.5C19.3563 13.3333 20.8333 14.8103 20.8333 16.6667C20.8333 18.523 19.3563 20 17.5 20H14.1667V13.3333ZM29.1667 20C24.1042 20 20 24.1042 20 29.1667C20 34.2292 24.1042 38.3333 29.1667 38.3333C34.2292 38.3333 38.3333 34.2292 38.3333 29.1667C38.3333 24.1042 34.2292 20 29.1667 20ZM29.1667 22.5C29.6275 22.5 30 22.8733 30 23.3333V24.1797C31.2867 24.2447 32.1074 24.9792 32.3665 25.3809C32.6165 25.7675 32.5058 26.284 32.1191 26.5332C31.7316 26.7807 31.2151 26.6725 30.9668 26.2858C30.9643 26.2858 30.6051 25.8333 29.8226 25.8333H28.5417C27.8525 25.8333 27.2917 26.3942 27.2917 27.0833C27.2917 27.7725 27.8525 28.3333 28.5417 28.3333H30C31.6083 28.3333 32.9167 29.6417 32.9167 31.25C32.9167 32.8583 31.6083 34.1667 30 34.1667V35C30 35.46 29.6275 35.8333 29.1667 35.8333C28.7058 35.8333 28.3333 35.46 28.3333 35V34.1634C27.2967 34.1559 26.3483 33.7767 25.6608 33.0892C25.335 32.7634 25.335 32.2383 25.6608 31.9124C25.9866 31.5866 26.5134 31.5866 26.8392 31.9124C27.1075 32.1799 27.5901 32.5 28.3643 32.5H30C30.6892 32.5 31.25 31.9392 31.25 31.25C31.25 30.5608 30.6892 30 30 30H28.5417C26.9333 30 25.625 28.6917 25.625 27.0833C25.625 25.5467 26.8242 24.297 28.3333 24.1878V23.3333C28.3333 22.8733 28.7058 22.5 29.1667 22.5Z" fill="#424242"/>
</g>
<defs>
<clipPath id="clip0_4_6694">
<rect width="40" height="40" fill="white"/>
</clipPath>
</defs>
</svg>
