<svg width="40" height="40" viewBox="0 0 40 40" fill="none" xmlns="http://www.w3.org/2000/svg">
<path d="M8.75001 7.5C8.4185 7.50003 8.10058 7.63174 7.86616 7.86615C7.63175 8.10057 7.50004 8.41849 7.50001 8.75C7.50001 10.3737 6.20702 11.6667 4.58334 11.6667C4.25183 11.6667 3.93391 11.7984 3.6995 12.0328C3.46508 12.2672 3.33338 12.5852 3.33334 12.9167V27.0833C3.33338 27.4148 3.46508 27.7328 3.6995 27.9672C3.93391 28.2016 4.25183 28.3333 4.58334 28.3333C6.20702 28.3333 7.50001 29.6263 7.50001 31.25C7.50004 31.5815 7.63175 31.8994 7.86616 32.1338C8.10058 32.3683 8.4185 32.5 8.75001 32.5H31.25C31.5815 32.5 31.8994 32.3683 32.1339 32.1338C32.3683 31.8994 32.5 31.5815 32.5 31.25C32.5 29.6263 33.793 28.3333 35.4167 28.3333C35.7482 28.3333 36.0661 28.2016 36.3005 27.9672C36.5349 27.7328 36.6666 27.4148 36.6667 27.0833V12.9167C36.6666 12.5852 36.5349 12.2672 36.3005 12.0328C36.0661 11.7984 35.7482 11.6667 35.4167 11.6667C33.793 11.6667 32.5 10.3737 32.5 8.75C32.5 8.41849 32.3683 8.10057 32.1339 7.86615C31.8994 7.63174 31.5815 7.50003 31.25 7.5H8.75001ZM9.7461 10H24.1667V10.4167C24.1643 10.5823 24.1949 10.7468 24.2567 10.9005C24.3185 11.0542 24.4102 11.1941 24.5265 11.312C24.6428 11.43 24.7814 11.5237 24.9342 11.5876C25.087 11.6515 25.251 11.6845 25.4167 11.6845C25.5823 11.6845 25.7463 11.6515 25.8992 11.5876C26.052 11.5237 26.1906 11.43 26.3069 11.312C26.4232 11.1941 26.5149 11.0542 26.5767 10.9005C26.6384 10.7468 26.669 10.5823 26.6667 10.4167V10H30.2539C30.7343 11.9496 32.2171 13.4324 34.1667 13.9128V26.0872C32.2171 26.5676 30.7343 28.0504 30.2539 30H26.6667V29.5833C26.6691 29.416 26.6379 29.2499 26.5749 29.0949C26.5119 28.9399 26.4185 28.7991 26.3001 28.6809C26.1817 28.5626 26.0408 28.4694 25.8857 28.4066C25.7306 28.3438 25.5644 28.3128 25.3971 28.3154C25.0659 28.3206 24.7503 28.457 24.5196 28.6948C24.2888 28.9325 24.1619 29.2521 24.1667 29.5833V30H9.7461C9.26577 28.0504 7.7829 26.5676 5.83334 26.0872V13.9128C7.7829 13.4324 9.26577 11.9496 9.7461 10ZM25.3971 13.3154C25.0659 13.3206 24.7503 13.457 24.5196 13.6948C24.2888 13.9325 24.1619 14.2521 24.1667 14.5833V15.4167C24.1643 15.5823 24.1949 15.7468 24.2567 15.9005C24.3185 16.0542 24.4102 16.1941 24.5265 16.312C24.6428 16.43 24.7814 16.5237 24.9342 16.5876C25.087 16.6515 25.251 16.6845 25.4167 16.6845C25.5823 16.6845 25.7463 16.6515 25.8992 16.5876C26.052 16.5237 26.1906 16.43 26.3069 16.312C26.4232 16.1941 26.5149 16.0542 26.5767 15.9005C26.6384 15.7468 26.669 15.5823 26.6667 15.4167V14.5833C26.6691 14.416 26.6379 14.2499 26.5749 14.0949C26.5119 13.9399 26.4185 13.7991 26.3001 13.6809C26.1817 13.5626 26.0408 13.4694 25.8857 13.4066C25.7306 13.3438 25.5644 13.3128 25.3971 13.3154V13.3154ZM11.25 15C11.0844 14.9977 10.9199 15.0283 10.7662 15.09C10.6125 15.1518 10.4726 15.2435 10.3546 15.3598C10.2367 15.4761 10.143 15.6147 10.0791 15.7675C10.0151 15.9203 9.98221 16.0843 9.98221 16.25C9.98221 16.4157 10.0151 16.5797 10.0791 16.7325C10.143 16.8853 10.2367 17.0239 10.3546 17.1402C10.4726 17.2565 10.6125 17.3482 10.7662 17.41C10.9199 17.4717 11.0844 17.5023 11.25 17.5H19.5833C19.749 17.5023 19.9134 17.4717 20.0671 17.41C20.2209 17.3482 20.3608 17.2565 20.4787 17.1402C20.5967 17.0239 20.6904 16.8853 20.7543 16.7325C20.8182 16.5797 20.8511 16.4157 20.8511 16.25C20.8511 16.0843 20.8182 15.9203 20.7543 15.7675C20.6904 15.6147 20.5967 15.4761 20.4787 15.3598C20.3608 15.2435 20.2209 15.1518 20.0671 15.09C19.9134 15.0283 19.749 14.9977 19.5833 15H11.25ZM25.3971 18.3154C25.0659 18.3206 24.7503 18.457 24.5196 18.6948C24.2888 18.9325 24.1619 19.2521 24.1667 19.5833V20.4167C24.1643 20.5823 24.1949 20.7468 24.2567 20.9005C24.3185 21.0542 24.4102 21.1941 24.5265 21.312C24.6428 21.43 24.7814 21.5237 24.9342 21.5876C25.087 21.6515 25.251 21.6845 25.4167 21.6845C25.5823 21.6845 25.7463 21.6515 25.8992 21.5876C26.052 21.5237 26.1906 21.43 26.3069 21.312C26.4232 21.1941 26.5149 21.0542 26.5767 20.9005C26.6384 20.7468 26.669 20.5823 26.6667 20.4167V19.5833C26.6691 19.416 26.6379 19.2499 26.5749 19.0949C26.5119 18.9399 26.4185 18.7991 26.3001 18.6809C26.1817 18.5626 26.0408 18.4694 25.8857 18.4066C25.7306 18.3438 25.5644 18.3128 25.3971 18.3154V18.3154ZM25.3971 23.3154C25.0659 23.3206 24.7503 23.457 24.5196 23.6948C24.2888 23.9325 24.1619 24.2521 24.1667 24.5833V25.4167C24.1643 25.5823 24.1949 25.7468 24.2567 25.9005C24.3185 26.0542 24.4102 26.1941 24.5265 26.312C24.6428 26.43 24.7814 26.5237 24.9342 26.5876C25.087 26.6515 25.251 26.6845 25.4167 26.6845C25.5823 26.6845 25.7463 26.6515 25.8992 26.5876C26.052 26.5237 26.1906 26.43 26.3069 26.312C26.4232 26.1941 26.5149 26.0542 26.5767 25.9005C26.6384 25.7468 26.669 25.5823 26.6667 25.4167V24.5833C26.6691 24.416 26.6379 24.2499 26.5749 24.0949C26.5119 23.9399 26.4185 23.7991 26.3001 23.6809C26.1817 23.5626 26.0408 23.4694 25.8857 23.4066C25.7306 23.3438 25.5644 23.3128 25.3971 23.3154V23.3154Z" fill="#424242"/>
</svg>
